<?xml version="1.0" encoding="UTF-8"?>
<mxfile host="app.diagrams.net" modified="2023-06-01T21:48:19.864Z" agent="Mozilla/5.0 (Macintosh; Intel Mac OS X 10_15_7) AppleWebKit/537.36 (KHTML, like Gecko) Chrome/113.0.0.0 Safari/537.36" etag="f1R_cujW5QkrXSr5uYaN" version="21.3.6" type="google">
  <diagram name="Page-1" id="k6efzP_CLwAkw8BMIJ7L">
    <mxGraphModel dx="1760" dy="486" grid="1" gridSize="10" guides="1" tooltips="1" connect="1" arrows="1" fold="1" page="1" pageScale="1" pageWidth="850" pageHeight="1100" math="0" shadow="0">
      <root>
        <mxCell id="0" />
        <mxCell id="1" parent="0" />
        <mxCell id="GHfVv0XTAEKPI9skxGSw-54" style="edgeStyle=orthogonalEdgeStyle;rounded=0;orthogonalLoop=1;jettySize=auto;html=1;entryX=0.7;entryY=0.983;entryDx=0;entryDy=0;entryPerimeter=0;" parent="1" source="GHfVv0XTAEKPI9skxGSw-1" target="GHfVv0XTAEKPI9skxGSw-13" edge="1">
          <mxGeometry relative="1" as="geometry">
            <Array as="points">
              <mxPoint x="343" y="110" />
              <mxPoint x="250" y="110" />
              <mxPoint x="250" y="90" />
            </Array>
          </mxGeometry>
        </mxCell>
        <mxCell id="GHfVv0XTAEKPI9skxGSw-1" value="navbar" style="rounded=0;whiteSpace=wrap;html=1;" parent="1" vertex="1">
          <mxGeometry x="283" y="130" width="120" height="60" as="geometry" />
        </mxCell>
        <mxCell id="GHfVv0XTAEKPI9skxGSw-3" value="Link" style="rounded=0;whiteSpace=wrap;html=1;" parent="1" vertex="1">
          <mxGeometry x="350" y="260" width="120" height="60" as="geometry" />
        </mxCell>
        <mxCell id="GHfVv0XTAEKPI9skxGSw-7" value="" style="endArrow=none;html=1;rounded=0;entryX=0.5;entryY=1;entryDx=0;entryDy=0;exitX=0.5;exitY=0;exitDx=0;exitDy=0;" parent="1" source="GHfVv0XTAEKPI9skxGSw-3" target="GHfVv0XTAEKPI9skxGSw-1" edge="1">
          <mxGeometry width="50" height="50" relative="1" as="geometry">
            <mxPoint x="343" y="300" as="sourcePoint" />
            <mxPoint x="373" y="340" as="targetPoint" />
            <Array as="points">
              <mxPoint x="410" y="220" />
              <mxPoint x="343" y="220" />
            </Array>
          </mxGeometry>
        </mxCell>
        <mxCell id="GHfVv0XTAEKPI9skxGSw-12" value="" style="endArrow=none;html=1;rounded=0;exitX=0.5;exitY=0;exitDx=0;exitDy=0;" parent="1" source="GHfVv0XTAEKPI9skxGSw-3" edge="1">
          <mxGeometry width="50" height="50" relative="1" as="geometry">
            <mxPoint x="323" y="390" as="sourcePoint" />
            <mxPoint x="343" y="260" as="targetPoint" />
          </mxGeometry>
        </mxCell>
        <mxCell id="GHfVv0XTAEKPI9skxGSw-34" style="edgeStyle=orthogonalEdgeStyle;rounded=0;orthogonalLoop=1;jettySize=auto;html=1;" parent="1" target="GHfVv0XTAEKPI9skxGSw-33" edge="1">
          <mxGeometry relative="1" as="geometry">
            <mxPoint y="220" as="sourcePoint" />
            <Array as="points">
              <mxPoint y="220" />
              <mxPoint x="-250" y="220" />
            </Array>
          </mxGeometry>
        </mxCell>
        <mxCell id="GHfVv0XTAEKPI9skxGSw-73" style="edgeStyle=orthogonalEdgeStyle;rounded=0;orthogonalLoop=1;jettySize=auto;html=1;exitX=0.25;exitY=1;exitDx=0;exitDy=0;" parent="1" source="GHfVv0XTAEKPI9skxGSw-13" target="GHfVv0XTAEKPI9skxGSw-35" edge="1">
          <mxGeometry relative="1" as="geometry" />
        </mxCell>
        <mxCell id="GHfVv0XTAEKPI9skxGSw-13" value="App" style="rounded=0;whiteSpace=wrap;html=1;" parent="1" vertex="1">
          <mxGeometry x="190" y="30" width="120" height="60" as="geometry" />
        </mxCell>
        <mxCell id="GHfVv0XTAEKPI9skxGSw-64" value="" style="edgeStyle=orthogonalEdgeStyle;rounded=0;orthogonalLoop=1;jettySize=auto;html=1;" parent="1" source="GHfVv0XTAEKPI9skxGSw-23" target="GHfVv0XTAEKPI9skxGSw-31" edge="1">
          <mxGeometry relative="1" as="geometry" />
        </mxCell>
        <mxCell id="GHfVv0XTAEKPI9skxGSw-23" value="Job List" style="rounded=0;whiteSpace=wrap;html=1;" parent="1" vertex="1">
          <mxGeometry x="-80" y="380" width="120" height="60" as="geometry" />
        </mxCell>
        <mxCell id="GHfVv0XTAEKPI9skxGSw-65" value="" style="edgeStyle=orthogonalEdgeStyle;rounded=0;orthogonalLoop=1;jettySize=auto;html=1;" parent="1" source="GHfVv0XTAEKPI9skxGSw-24" target="GHfVv0XTAEKPI9skxGSw-23" edge="1">
          <mxGeometry relative="1" as="geometry" />
        </mxCell>
        <mxCell id="GHfVv0XTAEKPI9skxGSw-70" style="edgeStyle=orthogonalEdgeStyle;rounded=0;orthogonalLoop=1;jettySize=auto;html=1;exitX=0.75;exitY=1;exitDx=0;exitDy=0;entryX=0.358;entryY=0;entryDx=0;entryDy=0;entryPerimeter=0;" parent="1" source="GHfVv0XTAEKPI9skxGSw-24" target="GHfVv0XTAEKPI9skxGSw-25" edge="1">
          <mxGeometry relative="1" as="geometry">
            <Array as="points">
              <mxPoint x="80" y="355" />
              <mxPoint x="140" y="355" />
              <mxPoint x="140" y="420" />
            </Array>
          </mxGeometry>
        </mxCell>
        <mxCell id="GHfVv0XTAEKPI9skxGSw-24" value="Job List Page" style="rounded=0;whiteSpace=wrap;html=1;" parent="1" vertex="1">
          <mxGeometry x="-10" y="270" width="120" height="60" as="geometry" />
        </mxCell>
        <mxCell id="GHfVv0XTAEKPI9skxGSw-25" value="Search Form" style="rounded=0;whiteSpace=wrap;html=1;" parent="1" vertex="1">
          <mxGeometry x="80" y="420" width="120" height="60" as="geometry" />
        </mxCell>
        <mxCell id="GHfVv0XTAEKPI9skxGSw-31" value="Job Card" style="rounded=0;whiteSpace=wrap;html=1;" parent="1" vertex="1">
          <mxGeometry x="-80" y="490" width="120" height="60" as="geometry" />
        </mxCell>
        <mxCell id="GHfVv0XTAEKPI9skxGSw-33" value="Homepage" style="rounded=0;whiteSpace=wrap;html=1;" parent="1" vertex="1">
          <mxGeometry x="-310" y="270" width="120" height="60" as="geometry" />
        </mxCell>
        <mxCell id="GHfVv0XTAEKPI9skxGSw-41" style="edgeStyle=orthogonalEdgeStyle;rounded=0;orthogonalLoop=1;jettySize=auto;html=1;entryX=0.5;entryY=0;entryDx=0;entryDy=0;" parent="1" source="GHfVv0XTAEKPI9skxGSw-35" target="GHfVv0XTAEKPI9skxGSw-36" edge="1">
          <mxGeometry relative="1" as="geometry">
            <Array as="points">
              <mxPoint x="140" y="220" />
              <mxPoint x="-100" y="220" />
              <mxPoint x="-100" y="270" />
            </Array>
          </mxGeometry>
        </mxCell>
        <mxCell id="GHfVv0XTAEKPI9skxGSw-58" style="edgeStyle=orthogonalEdgeStyle;rounded=0;orthogonalLoop=1;jettySize=auto;html=1;" parent="1" source="GHfVv0XTAEKPI9skxGSw-35" target="GHfVv0XTAEKPI9skxGSw-55" edge="1">
          <mxGeometry relative="1" as="geometry">
            <Array as="points">
              <mxPoint x="140" y="220" />
              <mxPoint x="213" y="220" />
            </Array>
          </mxGeometry>
        </mxCell>
        <mxCell id="GHfVv0XTAEKPI9skxGSw-74" style="edgeStyle=orthogonalEdgeStyle;rounded=0;orthogonalLoop=1;jettySize=auto;html=1;entryX=0.5;entryY=0;entryDx=0;entryDy=0;" parent="1" source="GHfVv0XTAEKPI9skxGSw-35" target="GHfVv0XTAEKPI9skxGSw-24" edge="1">
          <mxGeometry relative="1" as="geometry">
            <Array as="points">
              <mxPoint x="140" y="220" />
              <mxPoint x="50" y="220" />
            </Array>
          </mxGeometry>
        </mxCell>
        <mxCell id="GHfVv0XTAEKPI9skxGSw-35" value="Route List" style="rounded=0;whiteSpace=wrap;html=1;" parent="1" vertex="1">
          <mxGeometry x="80" y="130" width="120" height="60" as="geometry" />
        </mxCell>
        <mxCell id="GHfVv0XTAEKPI9skxGSw-63" style="edgeStyle=orthogonalEdgeStyle;rounded=0;orthogonalLoop=1;jettySize=auto;html=1;" parent="1" source="GHfVv0XTAEKPI9skxGSw-36" target="GHfVv0XTAEKPI9skxGSw-23" edge="1">
          <mxGeometry relative="1" as="geometry" />
        </mxCell>
        <mxCell id="GHfVv0XTAEKPI9skxGSw-36" value="Company Page" style="rounded=0;whiteSpace=wrap;html=1;" parent="1" vertex="1">
          <mxGeometry x="-165" y="270" width="120" height="60" as="geometry" />
        </mxCell>
        <mxCell id="GHfVv0XTAEKPI9skxGSw-44" value="jobs" style="rhombus;whiteSpace=wrap;html=1;" parent="1" vertex="1">
          <mxGeometry x="80" y="240" width="60" height="60" as="geometry" />
        </mxCell>
        <mxCell id="GHfVv0XTAEKPI9skxGSw-45" value="Form&lt;br&gt;Data" style="rhombus;whiteSpace=wrap;html=1;" parent="1" vertex="1">
          <mxGeometry x="169" y="394" width="60" height="54" as="geometry" />
        </mxCell>
        <mxCell id="GHfVv0XTAEKPI9skxGSw-69" style="edgeStyle=orthogonalEdgeStyle;rounded=0;orthogonalLoop=1;jettySize=auto;html=1;" parent="1" source="GHfVv0XTAEKPI9skxGSw-55" edge="1">
          <mxGeometry relative="1" as="geometry">
            <mxPoint x="140" y="382" as="targetPoint" />
            <Array as="points">
              <mxPoint x="213" y="355" />
              <mxPoint x="140" y="355" />
              <mxPoint x="140" y="382" />
            </Array>
          </mxGeometry>
        </mxCell>
        <mxCell id="GHfVv0XTAEKPI9skxGSw-72" style="edgeStyle=orthogonalEdgeStyle;rounded=0;orthogonalLoop=1;jettySize=auto;html=1;exitX=0.75;exitY=1;exitDx=0;exitDy=0;entryX=0.5;entryY=0;entryDx=0;entryDy=0;" parent="1" source="GHfVv0XTAEKPI9skxGSw-55" target="GHfVv0XTAEKPI9skxGSw-71" edge="1">
          <mxGeometry relative="1" as="geometry" />
        </mxCell>
        <mxCell id="GHfVv0XTAEKPI9skxGSw-55" value="Companies List Page" style="rounded=0;whiteSpace=wrap;html=1;" parent="1" vertex="1">
          <mxGeometry x="153" y="270" width="120" height="60" as="geometry" />
        </mxCell>
        <mxCell id="GHfVv0XTAEKPI9skxGSw-56" value="companies" style="rhombus;whiteSpace=wrap;html=1;" parent="1" vertex="1">
          <mxGeometry x="242" y="229" width="77" height="70" as="geometry" />
        </mxCell>
        <mxCell id="GHfVv0XTAEKPI9skxGSw-71" value="Company Card" style="rounded=0;whiteSpace=wrap;html=1;" parent="1" vertex="1">
          <mxGeometry x="243" y="380" width="120" height="60" as="geometry" />
        </mxCell>
        <mxCell id="GHfVv0XTAEKPI9skxGSw-75" value="company" style="rhombus;whiteSpace=wrap;html=1;" parent="1" vertex="1">
          <mxGeometry x="-83" y="238" width="65" height="65" as="geometry" />
        </mxCell>
        <mxCell id="GHfVv0XTAEKPI9skxGSw-76" value="ajax&lt;br&gt;call" style="ellipse;whiteSpace=wrap;html=1;aspect=fixed;" parent="1" vertex="1">
          <mxGeometry x="153" y="255" width="30" height="30" as="geometry" />
        </mxCell>
        <mxCell id="GHfVv0XTAEKPI9skxGSw-77" value="ajax&lt;br&gt;call" style="ellipse;whiteSpace=wrap;html=1;aspect=fixed;" parent="1" vertex="1">
          <mxGeometry x="-10" y="255" width="30" height="30" as="geometry" />
        </mxCell>
        <mxCell id="GHfVv0XTAEKPI9skxGSw-78" value="ajax&lt;br&gt;call" style="ellipse;whiteSpace=wrap;html=1;aspect=fixed;" parent="1" vertex="1">
          <mxGeometry x="-165" y="255" width="30" height="30" as="geometry" />
        </mxCell>
        <mxCell id="uk5x4lQuVrt9A72xVWMO-1" value="&lt;h1 style=&quot;border-color: var(--border-color);&quot;&gt;user Context&amp;nbsp; &amp;nbsp; &amp;nbsp; &amp;nbsp; &amp;nbsp; &amp;nbsp; &amp;nbsp; &amp;nbsp; &amp;nbsp; &amp;nbsp; &amp;nbsp; &amp;nbsp; &amp;nbsp; &amp;nbsp; &amp;nbsp; &amp;nbsp; &amp;nbsp; &amp;nbsp; &amp;nbsp; &amp;nbsp; &amp;nbsp; &amp;nbsp; &amp;nbsp;&lt;/h1&gt;&lt;h1&gt;&lt;div style=&quot;border-color: var(--border-color);&quot;&gt;&lt;br style=&quot;border-color: var(--border-color); font-size: 12px; font-weight: 400;&quot;&gt;&lt;/div&gt;&lt;/h1&gt;&lt;div&gt;&lt;br&gt;&lt;/div&gt;&lt;div&gt;&lt;br&gt;&lt;/div&gt;&lt;div&gt;&lt;br&gt;&lt;/div&gt;&lt;div&gt;&lt;br&gt;&lt;/div&gt;&lt;div&gt;&lt;br&gt;&lt;/div&gt;&lt;div&gt;&lt;br&gt;&lt;/div&gt;&lt;div&gt;&lt;br&gt;&lt;/div&gt;&lt;div&gt;&lt;br&gt;&lt;/div&gt;&lt;div&gt;&lt;br&gt;&lt;/div&gt;&lt;div&gt;&lt;br&gt;&lt;/div&gt;&lt;div&gt;&lt;br&gt;&lt;/div&gt;&lt;div&gt;&lt;br&gt;&lt;/div&gt;&lt;div&gt;&lt;br&gt;&lt;/div&gt;&lt;div&gt;&lt;br&gt;&lt;/div&gt;&lt;div&gt;&lt;br&gt;&lt;/div&gt;&lt;div&gt;&lt;br&gt;&lt;/div&gt;&lt;div&gt;&lt;br&gt;&lt;/div&gt;&lt;div&gt;&lt;br&gt;&lt;/div&gt;&lt;div&gt;&lt;br&gt;&lt;/div&gt;&lt;div&gt;&lt;br&gt;&lt;/div&gt;&lt;div&gt;&lt;br&gt;&lt;/div&gt;&lt;div&gt;&lt;br&gt;&lt;/div&gt;&lt;div&gt;&lt;br&gt;&lt;/div&gt;&lt;div&gt;&lt;br&gt;&lt;/div&gt;&lt;div&gt;&lt;br&gt;&lt;/div&gt;&lt;div&gt;&lt;br&gt;&lt;/div&gt;&lt;div&gt;&lt;br&gt;&lt;/div&gt;&lt;div&gt;&lt;br&gt;&lt;/div&gt;&lt;div&gt;&lt;br&gt;&lt;/div&gt;&lt;div&gt;&lt;br&gt;&lt;/div&gt;&lt;div&gt;&lt;br&gt;&lt;/div&gt;&lt;div&gt;&lt;br&gt;&lt;/div&gt;&lt;div&gt;&lt;br&gt;&lt;/div&gt;&lt;div&gt;&lt;br&gt;&lt;/div&gt;&lt;div&gt;&lt;br&gt;&lt;/div&gt;" style="rounded=0;whiteSpace=wrap;html=1;fillColor=#d5e8d4;strokeColor=#82b366;" parent="1" vertex="1">
          <mxGeometry x="-517" y="690" width="1370" height="660" as="geometry" />
        </mxCell>
        <mxCell id="uk5x4lQuVrt9A72xVWMO-3" value="navbar&lt;br&gt;(logged In)" style="rounded=0;whiteSpace=wrap;html=1;fillColor=#f8cecc;strokeColor=#b85450;" parent="1" vertex="1">
          <mxGeometry x="540" y="860" width="120" height="60" as="geometry" />
        </mxCell>
        <mxCell id="uk5x4lQuVrt9A72xVWMO-4" value="&lt;h5&gt;&lt;font style=&quot;font-size: 12px;&quot;&gt;Links&lt;/font&gt;&lt;/h5&gt;-Homepage&lt;br&gt;-CompanyPage&lt;br&gt;-JobListPage&lt;br&gt;-Profile&lt;br&gt;-Logout" style="rounded=0;whiteSpace=wrap;html=1;fillColor=#e1d5e7;strokeColor=#9673a6;" parent="1" vertex="1">
          <mxGeometry x="540" y="970" width="120" height="140" as="geometry" />
        </mxCell>
        <mxCell id="uk5x4lQuVrt9A72xVWMO-5" value="" style="endArrow=none;html=1;rounded=0;entryX=0.5;entryY=1;entryDx=0;entryDy=0;exitX=0.5;exitY=0;exitDx=0;exitDy=0;" parent="1" source="uk5x4lQuVrt9A72xVWMO-4" target="uk5x4lQuVrt9A72xVWMO-3" edge="1">
          <mxGeometry width="50" height="50" relative="1" as="geometry">
            <mxPoint x="503" y="1000" as="sourcePoint" />
            <mxPoint x="533" y="1040" as="targetPoint" />
            <Array as="points">
              <mxPoint x="600" y="920" />
            </Array>
          </mxGeometry>
        </mxCell>
        <mxCell id="uk5x4lQuVrt9A72xVWMO-6" style="edgeStyle=orthogonalEdgeStyle;rounded=0;orthogonalLoop=1;jettySize=auto;html=1;" parent="1" target="uk5x4lQuVrt9A72xVWMO-16" edge="1">
          <mxGeometry relative="1" as="geometry">
            <mxPoint x="160" y="920" as="sourcePoint" />
            <Array as="points">
              <mxPoint x="-10" y="920" />
              <mxPoint x="-10" y="1000" />
            </Array>
          </mxGeometry>
        </mxCell>
        <mxCell id="uk5x4lQuVrt9A72xVWMO-7" style="edgeStyle=orthogonalEdgeStyle;rounded=0;orthogonalLoop=1;jettySize=auto;html=1;exitX=0.25;exitY=1;exitDx=0;exitDy=0;" parent="1" source="uk5x4lQuVrt9A72xVWMO-8" target="uk5x4lQuVrt9A72xVWMO-20" edge="1">
          <mxGeometry relative="1" as="geometry" />
        </mxCell>
        <mxCell id="Y4G8zXYfDRX42FFV4Pu0-13" style="edgeStyle=orthogonalEdgeStyle;rounded=0;orthogonalLoop=1;jettySize=auto;html=1;exitX=0.75;exitY=1;exitDx=0;exitDy=0;" edge="1" parent="1" source="uk5x4lQuVrt9A72xVWMO-8" target="uk5x4lQuVrt9A72xVWMO-45">
          <mxGeometry relative="1" as="geometry" />
        </mxCell>
        <mxCell id="Y4G8zXYfDRX42FFV4Pu0-14" style="edgeStyle=orthogonalEdgeStyle;rounded=0;orthogonalLoop=1;jettySize=auto;html=1;exitX=0.5;exitY=1;exitDx=0;exitDy=0;" edge="1" parent="1" source="uk5x4lQuVrt9A72xVWMO-8" target="uk5x4lQuVrt9A72xVWMO-3">
          <mxGeometry relative="1" as="geometry">
            <Array as="points">
              <mxPoint x="390" y="840" />
              <mxPoint x="600" y="840" />
            </Array>
          </mxGeometry>
        </mxCell>
        <mxCell id="uk5x4lQuVrt9A72xVWMO-8" value="App&lt;br&gt;&lt;br&gt;(functions: useEffect,&amp;nbsp;&lt;br&gt;login, signUp, updateUser" style="rounded=0;whiteSpace=wrap;html=1;fillColor=#f5f5f5;gradientColor=#b3b3b3;strokeColor=#666666;" parent="1" vertex="1">
          <mxGeometry x="250" y="710" width="280" height="80" as="geometry" />
        </mxCell>
        <mxCell id="uk5x4lQuVrt9A72xVWMO-9" value="" style="edgeStyle=orthogonalEdgeStyle;rounded=0;orthogonalLoop=1;jettySize=auto;html=1;" parent="1" source="uk5x4lQuVrt9A72xVWMO-10" target="uk5x4lQuVrt9A72xVWMO-15" edge="1">
          <mxGeometry relative="1" as="geometry" />
        </mxCell>
        <mxCell id="uk5x4lQuVrt9A72xVWMO-10" value="Job List" style="rounded=0;whiteSpace=wrap;html=1;" parent="1" vertex="1">
          <mxGeometry x="80" y="1080" width="120" height="60" as="geometry" />
        </mxCell>
        <mxCell id="uk5x4lQuVrt9A72xVWMO-11" value="" style="edgeStyle=orthogonalEdgeStyle;rounded=0;orthogonalLoop=1;jettySize=auto;html=1;" parent="1" source="uk5x4lQuVrt9A72xVWMO-13" target="uk5x4lQuVrt9A72xVWMO-10" edge="1">
          <mxGeometry relative="1" as="geometry" />
        </mxCell>
        <mxCell id="uk5x4lQuVrt9A72xVWMO-12" style="edgeStyle=orthogonalEdgeStyle;rounded=0;orthogonalLoop=1;jettySize=auto;html=1;exitX=0.75;exitY=1;exitDx=0;exitDy=0;entryX=0.5;entryY=0;entryDx=0;entryDy=0;" parent="1" source="uk5x4lQuVrt9A72xVWMO-13" target="uk5x4lQuVrt9A72xVWMO-14" edge="1">
          <mxGeometry relative="1" as="geometry">
            <Array as="points">
              <mxPoint x="270" y="1055" />
              <mxPoint x="300" y="1055" />
            </Array>
          </mxGeometry>
        </mxCell>
        <mxCell id="uk5x4lQuVrt9A72xVWMO-13" value="Job List Page" style="rounded=0;whiteSpace=wrap;html=1;fillColor=#f8cecc;strokeColor=#b85450;" parent="1" vertex="1">
          <mxGeometry x="180" y="970" width="120" height="60" as="geometry" />
        </mxCell>
        <mxCell id="uk5x4lQuVrt9A72xVWMO-14" value="Search Form" style="rounded=0;whiteSpace=wrap;html=1;" parent="1" vertex="1">
          <mxGeometry x="240" y="1120" width="120" height="60" as="geometry" />
        </mxCell>
        <mxCell id="uk5x4lQuVrt9A72xVWMO-15" value="Job Card" style="rounded=0;whiteSpace=wrap;html=1;fillColor=#dae8fc;strokeColor=#6c8ebf;" parent="1" vertex="1">
          <mxGeometry x="80" y="1190" width="120" height="60" as="geometry" />
        </mxCell>
        <mxCell id="uk5x4lQuVrt9A72xVWMO-16" value="Homepage" style="rounded=0;whiteSpace=wrap;html=1;fillColor=#ffe6cc;strokeColor=#d79b00;" parent="1" vertex="1">
          <mxGeometry x="-50" y="970" width="80" height="60" as="geometry" />
        </mxCell>
        <mxCell id="uk5x4lQuVrt9A72xVWMO-17" style="edgeStyle=orthogonalEdgeStyle;rounded=0;orthogonalLoop=1;jettySize=auto;html=1;entryX=0.5;entryY=0;entryDx=0;entryDy=0;" parent="1" source="uk5x4lQuVrt9A72xVWMO-20" target="uk5x4lQuVrt9A72xVWMO-22" edge="1">
          <mxGeometry relative="1" as="geometry">
            <Array as="points">
              <mxPoint x="300" y="920" />
              <mxPoint x="100" y="920" />
            </Array>
          </mxGeometry>
        </mxCell>
        <mxCell id="uk5x4lQuVrt9A72xVWMO-18" style="edgeStyle=orthogonalEdgeStyle;rounded=0;orthogonalLoop=1;jettySize=auto;html=1;" parent="1" source="uk5x4lQuVrt9A72xVWMO-20" target="uk5x4lQuVrt9A72xVWMO-27" edge="1">
          <mxGeometry relative="1" as="geometry">
            <Array as="points">
              <mxPoint x="300" y="920" />
              <mxPoint x="373" y="920" />
            </Array>
          </mxGeometry>
        </mxCell>
        <mxCell id="uk5x4lQuVrt9A72xVWMO-19" style="edgeStyle=orthogonalEdgeStyle;rounded=0;orthogonalLoop=1;jettySize=auto;html=1;entryX=0.5;entryY=0;entryDx=0;entryDy=0;" parent="1" source="uk5x4lQuVrt9A72xVWMO-20" target="uk5x4lQuVrt9A72xVWMO-13" edge="1">
          <mxGeometry relative="1" as="geometry">
            <Array as="points">
              <mxPoint x="300" y="920" />
              <mxPoint x="240" y="920" />
            </Array>
          </mxGeometry>
        </mxCell>
        <mxCell id="uk5x4lQuVrt9A72xVWMO-20" value="Route List&lt;br&gt;(pages + logout)" style="rounded=0;whiteSpace=wrap;html=1;fillColor=#e1d5e7;strokeColor=#9673a6;" parent="1" vertex="1">
          <mxGeometry x="240" y="830" width="120" height="60" as="geometry" />
        </mxCell>
        <mxCell id="uk5x4lQuVrt9A72xVWMO-21" style="edgeStyle=orthogonalEdgeStyle;rounded=0;orthogonalLoop=1;jettySize=auto;html=1;" parent="1" source="uk5x4lQuVrt9A72xVWMO-22" target="uk5x4lQuVrt9A72xVWMO-10" edge="1">
          <mxGeometry relative="1" as="geometry" />
        </mxCell>
        <mxCell id="uk5x4lQuVrt9A72xVWMO-22" value="Company Details Page" style="rounded=0;whiteSpace=wrap;html=1;fillColor=#f8cecc;strokeColor=#b85450;" parent="1" vertex="1">
          <mxGeometry x="40" y="970" width="120" height="60" as="geometry" />
        </mxCell>
        <mxCell id="uk5x4lQuVrt9A72xVWMO-23" value="jobs" style="rhombus;whiteSpace=wrap;html=1;fillColor=#60a917;fontColor=#ffffff;strokeColor=#2D7600;" parent="1" vertex="1">
          <mxGeometry x="260" y="935" width="60" height="60" as="geometry" />
        </mxCell>
        <mxCell id="uk5x4lQuVrt9A72xVWMO-24" value="Form&lt;br&gt;Data" style="rhombus;whiteSpace=wrap;html=1;fillColor=#60a917;fontColor=#ffffff;strokeColor=#2D7600;" parent="1" vertex="1">
          <mxGeometry x="329" y="1094" width="60" height="54" as="geometry" />
        </mxCell>
        <mxCell id="uk5x4lQuVrt9A72xVWMO-25" style="edgeStyle=orthogonalEdgeStyle;rounded=0;orthogonalLoop=1;jettySize=auto;html=1;entryX=0.5;entryY=0;entryDx=0;entryDy=0;" parent="1" source="uk5x4lQuVrt9A72xVWMO-27" target="uk5x4lQuVrt9A72xVWMO-14" edge="1">
          <mxGeometry relative="1" as="geometry">
            <mxPoint x="300" y="1082" as="targetPoint" />
            <Array as="points">
              <mxPoint x="373" y="1055" />
              <mxPoint x="300" y="1055" />
            </Array>
          </mxGeometry>
        </mxCell>
        <mxCell id="uk5x4lQuVrt9A72xVWMO-26" style="edgeStyle=orthogonalEdgeStyle;rounded=0;orthogonalLoop=1;jettySize=auto;html=1;exitX=0.75;exitY=1;exitDx=0;exitDy=0;entryX=0.5;entryY=0;entryDx=0;entryDy=0;" parent="1" source="uk5x4lQuVrt9A72xVWMO-27" target="uk5x4lQuVrt9A72xVWMO-29" edge="1">
          <mxGeometry relative="1" as="geometry" />
        </mxCell>
        <mxCell id="uk5x4lQuVrt9A72xVWMO-27" value="Companies List Page" style="rounded=0;whiteSpace=wrap;html=1;fillColor=#f8cecc;strokeColor=#b85450;" parent="1" vertex="1">
          <mxGeometry x="313" y="970" width="120" height="60" as="geometry" />
        </mxCell>
        <mxCell id="uk5x4lQuVrt9A72xVWMO-28" value="companies" style="rhombus;whiteSpace=wrap;html=1;fillColor=#60a917;fontColor=#ffffff;strokeColor=#2D7600;" parent="1" vertex="1">
          <mxGeometry x="395" y="930" width="77" height="70" as="geometry" />
        </mxCell>
        <mxCell id="uk5x4lQuVrt9A72xVWMO-29" value="Company Card" style="rounded=0;whiteSpace=wrap;html=1;fillColor=#dae8fc;strokeColor=#6c8ebf;" parent="1" vertex="1">
          <mxGeometry x="403" y="1080" width="120" height="60" as="geometry" />
        </mxCell>
        <mxCell id="uk5x4lQuVrt9A72xVWMO-30" value="company" style="rhombus;whiteSpace=wrap;html=1;fillColor=#60a917;fontColor=#ffffff;strokeColor=#2D7600;" parent="1" vertex="1">
          <mxGeometry x="120" y="935" width="65" height="65" as="geometry" />
        </mxCell>
        <mxCell id="Y4G8zXYfDRX42FFV4Pu0-19" style="edgeStyle=orthogonalEdgeStyle;rounded=0;orthogonalLoop=1;jettySize=auto;html=1;exitX=1;exitY=0;exitDx=0;exitDy=0;entryX=0.25;entryY=0;entryDx=0;entryDy=0;" edge="1" parent="1" source="uk5x4lQuVrt9A72xVWMO-31" target="uk5x4lQuVrt9A72xVWMO-27">
          <mxGeometry relative="1" as="geometry" />
        </mxCell>
        <mxCell id="uk5x4lQuVrt9A72xVWMO-31" value="ajax&lt;br&gt;call" style="ellipse;whiteSpace=wrap;html=1;aspect=fixed;fillColor=#6a00ff;fontColor=#ffffff;strokeColor=#3700CC;" parent="1" vertex="1">
          <mxGeometry x="319" y="955" width="30" height="30" as="geometry" />
        </mxCell>
        <mxCell id="uk5x4lQuVrt9A72xVWMO-32" style="edgeStyle=orthogonalEdgeStyle;rounded=0;orthogonalLoop=1;jettySize=auto;html=1;exitX=1;exitY=0.5;exitDx=0;exitDy=0;entryX=0.108;entryY=-0.018;entryDx=0;entryDy=0;entryPerimeter=0;" parent="1" source="uk5x4lQuVrt9A72xVWMO-33" target="uk5x4lQuVrt9A72xVWMO-13" edge="1">
          <mxGeometry relative="1" as="geometry" />
        </mxCell>
        <mxCell id="uk5x4lQuVrt9A72xVWMO-33" value="ajax&lt;br&gt;call" style="ellipse;whiteSpace=wrap;html=1;aspect=fixed;fillColor=#6a00ff;fontColor=#ffffff;strokeColor=#3700CC;" parent="1" vertex="1">
          <mxGeometry x="180" y="955" width="30" height="30" as="geometry" />
        </mxCell>
        <mxCell id="uk5x4lQuVrt9A72xVWMO-34" value="ajax&lt;br&gt;call" style="ellipse;whiteSpace=wrap;html=1;aspect=fixed;fillColor=#6a00ff;fontColor=#ffffff;strokeColor=#3700CC;" parent="1" vertex="1">
          <mxGeometry x="30" y="955" width="30" height="30" as="geometry" />
        </mxCell>
        <mxCell id="uk5x4lQuVrt9A72xVWMO-35" value="{user, token}" style="rhombus;whiteSpace=wrap;html=1;fillColor=#60a917;fontColor=#ffffff;strokeColor=#2D7600;" parent="1" vertex="1">
          <mxGeometry x="492" y="675" width="77" height="70" as="geometry" />
        </mxCell>
        <mxCell id="uk5x4lQuVrt9A72xVWMO-36" value="" style="endArrow=classic;html=1;rounded=0;" parent="1" edge="1">
          <mxGeometry width="50" height="50" relative="1" as="geometry">
            <mxPoint x="-19" y="920" as="sourcePoint" />
            <mxPoint x="-219" y="970" as="targetPoint" />
            <Array as="points">
              <mxPoint x="-219" y="920" />
              <mxPoint x="-219" y="940" />
              <mxPoint x="-219" y="950" />
            </Array>
          </mxGeometry>
        </mxCell>
        <mxCell id="uk5x4lQuVrt9A72xVWMO-38" value="Profile&lt;br&gt;&lt;br&gt;handleUpdate" style="rounded=0;whiteSpace=wrap;html=1;fillColor=#f8cecc;strokeColor=#b85450;" parent="1" vertex="1">
          <mxGeometry x="-150" y="970" width="80" height="80" as="geometry" />
        </mxCell>
        <mxCell id="uk5x4lQuVrt9A72xVWMO-39" value="Login&lt;br&gt;&lt;br&gt;(function: handleLogin)&lt;br&gt;" style="rounded=0;whiteSpace=wrap;html=1;fillColor=#fff2cc;strokeColor=#d6b656;" parent="1" vertex="1">
          <mxGeometry x="-380" y="970" width="80" height="80" as="geometry" />
        </mxCell>
        <mxCell id="uk5x4lQuVrt9A72xVWMO-41" value="Signup&lt;br&gt;&lt;br&gt;(function: handleSignUp)" style="rounded=0;whiteSpace=wrap;html=1;fillColor=#fff2cc;strokeColor=#d6b656;" parent="1" vertex="1">
          <mxGeometry x="-261" y="970" width="80" height="80" as="geometry" />
        </mxCell>
        <mxCell id="uk5x4lQuVrt9A72xVWMO-42" value="" style="endArrow=classic;html=1;rounded=0;entryX=0.5;entryY=0;entryDx=0;entryDy=0;" parent="1" target="uk5x4lQuVrt9A72xVWMO-39" edge="1">
          <mxGeometry width="50" height="50" relative="1" as="geometry">
            <mxPoint x="-200" y="920" as="sourcePoint" />
            <mxPoint x="-310" y="950" as="targetPoint" />
            <Array as="points">
              <mxPoint x="-340" y="920" />
            </Array>
          </mxGeometry>
        </mxCell>
        <mxCell id="uk5x4lQuVrt9A72xVWMO-43" value="" style="endArrow=classic;html=1;rounded=0;entryX=0.5;entryY=0;entryDx=0;entryDy=0;" parent="1" target="uk5x4lQuVrt9A72xVWMO-38" edge="1">
          <mxGeometry width="50" height="50" relative="1" as="geometry">
            <mxPoint x="-110" y="920" as="sourcePoint" />
            <mxPoint x="-110" y="950" as="targetPoint" />
          </mxGeometry>
        </mxCell>
        <mxCell id="uk5x4lQuVrt9A72xVWMO-44" style="edgeStyle=orthogonalEdgeStyle;rounded=0;orthogonalLoop=1;jettySize=auto;html=1;" parent="1" source="uk5x4lQuVrt9A72xVWMO-45" target="uk5x4lQuVrt9A72xVWMO-47" edge="1">
          <mxGeometry relative="1" as="geometry" />
        </mxCell>
        <mxCell id="uk5x4lQuVrt9A72xVWMO-45" value="navbar&lt;br&gt;(logged Out)" style="rounded=0;whiteSpace=wrap;html=1;fillColor=#fff2cc;strokeColor=#d6b656;" parent="1" vertex="1">
          <mxGeometry x="710" y="860" width="120" height="60" as="geometry" />
        </mxCell>
        <mxCell id="uk5x4lQuVrt9A72xVWMO-47" value="&lt;h5&gt;&lt;font style=&quot;font-size: 12px;&quot;&gt;Links&lt;/font&gt;&lt;/h5&gt;-Login&lt;br&gt;-Singup&lt;br&gt;-Homepage&lt;br&gt;" style="rounded=0;whiteSpace=wrap;html=1;fillColor=#e1d5e7;strokeColor=#9673a6;" parent="1" vertex="1">
          <mxGeometry x="710" y="970" width="120" height="110" as="geometry" />
        </mxCell>
        <mxCell id="uk5x4lQuVrt9A72xVWMO-48" value="ajax&lt;br&gt;call" style="ellipse;whiteSpace=wrap;html=1;aspect=fixed;fillColor=#6a00ff;fontColor=#ffffff;strokeColor=#3700CC;" parent="1" vertex="1">
          <mxGeometry x="-390" y="955" width="30" height="30" as="geometry" />
        </mxCell>
        <mxCell id="uk5x4lQuVrt9A72xVWMO-49" value="ajax&lt;br&gt;call" style="ellipse;whiteSpace=wrap;html=1;aspect=fixed;fillColor=#6a00ff;fontColor=#ffffff;strokeColor=#3700CC;" parent="1" vertex="1">
          <mxGeometry x="-261" y="955" width="30" height="30" as="geometry" />
        </mxCell>
        <mxCell id="uk5x4lQuVrt9A72xVWMO-50" value="ajax&lt;br&gt;call" style="ellipse;whiteSpace=wrap;html=1;aspect=fixed;fillColor=#6a00ff;fontColor=#ffffff;strokeColor=#3700CC;" parent="1" vertex="1">
          <mxGeometry x="-150" y="959" width="30" height="30" as="geometry" />
        </mxCell>
        <mxCell id="Y4G8zXYfDRX42FFV4Pu0-2" value="Form&lt;br&gt;Data" style="rhombus;whiteSpace=wrap;html=1;fillColor=#60a917;fontColor=#ffffff;strokeColor=#2D7600;" vertex="1" parent="1">
          <mxGeometry x="-330" y="941" width="60" height="54" as="geometry" />
        </mxCell>
        <mxCell id="Y4G8zXYfDRX42FFV4Pu0-5" value="Form&lt;br&gt;Data" style="rhombus;whiteSpace=wrap;html=1;fillColor=#60a917;fontColor=#ffffff;strokeColor=#2D7600;" vertex="1" parent="1">
          <mxGeometry x="-211" y="935" width="60" height="54" as="geometry" />
        </mxCell>
        <mxCell id="Y4G8zXYfDRX42FFV4Pu0-7" value="Form&lt;br&gt;Data" style="rhombus;whiteSpace=wrap;html=1;fillColor=#60a917;fontColor=#ffffff;strokeColor=#2D7600;" vertex="1" parent="1">
          <mxGeometry x="-105" y="935" width="60" height="54" as="geometry" />
        </mxCell>
      </root>
    </mxGraphModel>
  </diagram>
</mxfile>
